<?xml version="1.0" encoding="UTF-8" standalone="no"?>
<!-- Generator: Adobe Illustrator 22.1.0, SVG Export Plug-In . SVG Version: 6.00 Build 0)  -->

<svg
   xmlns:dc="http://purl.org/dc/elements/1.1/"
   xmlns:cc="http://creativecommons.org/ns#"
   xmlns:rdf="http://www.w3.org/1999/02/22-rdf-syntax-ns#"
   xmlns:svg="http://www.w3.org/2000/svg"
   xmlns="http://www.w3.org/2000/svg"
   xmlns:sodipodi="http://sodipodi.sourceforge.net/DTD/sodipodi-0.dtd"
   xmlns:inkscape="http://www.inkscape.org/namespaces/inkscape"
   version="1.1"
   id="Capa_1"
   x="0px"
   y="0px"
   viewBox="0 0 230 92"
   xml:space="preserve"
   inkscape:version="0.48.1 "
   width="100%"
   height="100%"
   sodipodi:docname="unvisiglo21.svg"><metadata
   id="metadata3225"><rdf:RDF><cc:Work
       rdf:about=""><dc:format>image/svg+xml</dc:format><dc:type
         rdf:resource="http://purl.org/dc/dcmitype/StillImage" /></cc:Work></rdf:RDF></metadata><defs
   id="defs3223">
	
	
	
	
	
</defs><sodipodi:namedview
   pagecolor="#ffffff"
   bordercolor="#666666"
   borderopacity="1"
   objecttolerance="10"
   gridtolerance="10"
   guidetolerance="10"
   inkscape:pageopacity="0"
   inkscape:pageshadow="2"
   inkscape:window-width="1280"
   inkscape:window-height="657"
   id="namedview3221"
   showgrid="false"
   inkscape:zoom="2.0425532"
   inkscape:cx="117.5"
   inkscape:cy="46"
   inkscape:window-x="0"
   inkscape:window-y="0"
   inkscape:window-maximized="1"
   inkscape:current-layer="Capa_1" />
<style
   type="text/css"
   id="style3107">
	.st0{fill:none;}
	.st1{fill:#006655;}
	.st2{fill:#FFFFFF;}
	.st3{fill:#00A98F;}
	.st4{fill:#6D6E71;}
</style>
<g
   id="g3282"
   transform="matrix(1.2005208,0,0,1.2005208,-25.764323,-9.2286458)"><g
     id="g3113">
		<polygon
   class="st1"
   points="200.2,74 210,23.7 161.1,23.7 161.1,74 "
   id="polygon3115"
   style="fill:#006655" />
		<path
   class="st2"
   d="m 187.7,36 c -1.6,-1.4 -4.2,-2.1 -7.6,-2.1 -1.6,0 -3.2,0.2 -4.9,0.5 -0.9,0.2 -1.7,0.4 -2.5,0.7 l -1.3,6.5 c 1,-0.5 1.9,-0.9 2.7,-1.2 1.1,-0.3 2.4,-0.5 3.8,-0.5 1.4,0 2.5,0.3 3.1,1 0.6,0.7 1,1.5 1,2.5 0,1.4 -0.6,2.8 -1.9,4.1 -1.2,1.3 -3.8,3.3 -7.6,6 l -3.9,2.8 -1.5,7.6 h 19.3 l 1.2,-6.2 H 176 l 5.1,-3.6 c 3.1,-2.2 5.4,-4.3 6.9,-6.2 1.5,-1.9 2.2,-4.1 2.2,-6.4 0,-2.3 -0.8,-4.1 -2.5,-5.5 z"
   id="path3117"
   inkscape:connector-curvature="0"
   style="fill:#ffffff" />
		<polygon
   class="st3"
   points="199.6,74 211.5,74 211.5,23.7 209.5,23.7 "
   id="polygon3119"
   style="fill:#00a98f" />
		<polygon
   class="st2"
   points="199.9,44.5 192.6,47 191.3,53.6 196.9,51.4 192.5,74 199.6,74 205.4,44.5 "
   id="polygon3121"
   style="fill:#ffffff" />
	</g><g
     id="g3123">
		<path
   class="st4"
   d="m 24.8,9.6 h 2.6 v 7.5 c 0,2.2 0.7,3.7 2.7,3.7 2,0 2.7,-1.4 2.7,-3.7 V 9.6 h 2.6 v 8.3 c 0,3.5 -2,4.9 -5.3,4.9 -3.3,0 -5.3,-1.4 -5.3,-4.9 V 9.6 z"
   id="path3125"
   inkscape:connector-curvature="0"
   style="fill:#6d6e71" />
		<path
   class="st4"
   d="m 38.3,9.6 h 3.2 l 4.9,9.7 h 0 V 9.6 h 2.5 v 12.9 h -3.2 l -5,-9.7 h 0 v 9.7 H 38.2 V 9.6 z"
   id="path3127"
   inkscape:connector-curvature="0"
   style="fill:#6d6e71" />
		<path
   class="st4"
   d="m 51.6,9.6 h 2.6 V 22.5 H 51.6 V 9.6 z"
   id="path3129"
   inkscape:connector-curvature="0"
   style="fill:#6d6e71" />
		<path
   class="st4"
   d="m 55.8,9.6 h 2.8 l 3.3,10.2 h 0 L 65.2,9.6 h 2.6 L 63.4,22.5 H 60.2 L 55.8,9.6 z"
   id="path3131"
   inkscape:connector-curvature="0"
   style="fill:#6d6e71" />
		<path
   class="st4"
   d="m 69.6,9.6 h 7.6 v 2 h -5 v 3.2 h 4.6 v 2 h -4.6 v 3.6 h 5.1 v 2 H 69.6 V 9.6 z"
   id="path3133"
   inkscape:connector-curvature="0"
   style="fill:#6d6e71" />
		<path
   class="st4"
   d="m 79.8,9.6 h 2.8 c 2.8,0 6.1,-0.1 6.1,3.5 0,1.5 -1,2.8 -2.7,3 v 0 c 0.7,0.1 1.1,0.8 1.4,1.3 l 2.1,5.1 h -2.9 l -1.6,-4 c -0.4,-1 -0.7,-1.3 -1.8,-1.3 h -0.8 v 5.4 h -2.6 v -13 z m 2.5,5.5 h 0.9 c 1.3,0 2.7,-0.2 2.7,-1.8 0,-1.6 -1.4,-1.7 -2.7,-1.7 h -0.9 v 3.5 z"
   id="path3135"
   inkscape:connector-curvature="0"
   style="fill:#6d6e71" />
		<path
   class="st4"
   d="m 98.3,12 c -0.8,-0.4 -1.7,-0.6 -2.6,-0.6 -0.9,0 -2,0.4 -2,1.8 0,2.2 5.7,1.3 5.7,5.6 0,2.8 -2.2,3.9 -4.9,3.9 -1.4,0 -2,-0.2 -3.3,-0.5 l 0.2,-2.3 c 0.9,0.5 1.9,0.8 2.9,0.8 1,0 2.3,-0.5 2.3,-1.7 0,-2.5 -5.7,-1.4 -5.7,-5.7 0,-2.9 2.2,-3.9 4.5,-3.9 1.1,0 2.2,0.1 3.1,0.5 L 98.3,12 z"
   id="path3137"
   inkscape:connector-curvature="0"
   style="fill:#6d6e71" />
		<path
   class="st4"
   d="m 101.6,9.6 h 2.6 v 12.9 h -2.6 V 9.6 z"
   id="path3139"
   inkscape:connector-curvature="0"
   style="fill:#6d6e71" />
		<path
   class="st4"
   d="m 107,9.6 h 3.5 c 4,0 7.5,1.3 7.5,6.5 0,5.1 -3.5,6.5 -7.5,6.5 H 107 v -13 z m 2.6,10.9 h 1.4 c 2.2,0 4.3,-1.6 4.3,-4.4 0,-2.8 -2.1,-4.4 -4.3,-4.4 h -1.4 v 8.8 z"
   id="path3141"
   inkscape:connector-curvature="0"
   style="fill:#6d6e71" />
		<path
   class="st4"
   d="m 124.2,9.6 h 2.9 l 5.1,12.9 h -2.9 l -1.1,-3 H 123 l -1.1,3 h -2.7 l 5,-12.9 z m 1.5,2.6 0,0 -1.9,5.3 h 3.8 l -1.9,-5.3 z"
   id="path3143"
   inkscape:connector-curvature="0"
   style="fill:#6d6e71" />
		<path
   class="st4"
   d="m 134,9.6 h 3.5 c 4,0 7.5,1.3 7.5,6.5 0,5.1 -3.5,6.5 -7.5,6.5 H 134 v -13 z m 2.6,10.9 h 1.4 c 2.2,0 4.3,-1.6 4.3,-4.4 0,-2.8 -2.1,-4.4 -4.3,-4.4 h -1.4 v 8.8 z"
   id="path3145"
   inkscape:connector-curvature="0"
   style="fill:#6d6e71" />
	</g><g
     id="g3147">
		<g
   id="g3149">
			<g
   id="g3151">
				<g
   id="g3153">
					<path
   class="st1"
   d="m 50.8,34.3 h 7.9 V 63.8 H 50.8 V 34.3 z"
   id="path3155"
   inkscape:connector-curvature="0"
   style="fill:#006655" />
				</g>
			</g>
			<g
   id="g3157">
				<g
   id="g3159">
					<path
   class="st1"
   d="m 131.5,33.8 c 9.7,0 14.8,5.8 14.8,15.3 0,9.4 -5.2,15.3 -14.8,15.3 -9.6,0 -14.8,-5.9 -14.8,-15.3 0,-9.5 5.1,-15.3 14.8,-15.3 z m 0,24.7 c 4.8,0 6.7,-4.6 6.7,-9.4 0,-5.1 -1.9,-9.4 -6.7,-9.4 -4.8,0 -6.7,4.3 -6.7,9.4 0,4.9 1.9,9.4 6.7,9.4 z"
   id="path3161"
   inkscape:connector-curvature="0"
   style="fill:#006655" />
				</g>
			</g>
			<g
   id="g3163">
				<path
   class="st1"
   d="m 80.7,33.8 c -10.8,0 -17,4.3 -17,15.4 0,11.2 7.4,15.1 15.3,15.1 2.7,0 6.4,-0.1 11.4,-1.4 V 46.6 h -11 l -1.1,5.6 h 4.5 V 58 c -0.7,0.3 -1.7,0.5 -2.8,0.5 -5.7,0 -8.2,-3.5 -8.2,-9.3 0,-6.9 3.6,-9.6 10,-9.6 1.7,0 4.3,0.4 6.6,1.6 l 1.2,-6.1 c -2.9,-1.1 -7,-1.3 -8.9,-1.3 z"
   id="path3165"
   inkscape:connector-curvature="0"
   style="fill:#006655" />
			</g>
			<g
   id="g3167">
				<path
   class="st1"
   d="m 36.4,33.8 c -5.9,0 -12.9,1.9 -12.9,9 0,10.7 14,7.3 14,12.8 0,2.4 -2.4,2.9 -4.9,2.9 -3.3,0 -6.1,-0.8 -8.1,-1.9 l -0.7,6.5 c 2.6,0.8 6,1.3 8.8,1.3 6.6,0 13,-2.1 13,-9.7 0,-10.7 -14,-7.4 -14,-12.2 0,-2.6 3.3,-2.7 5.3,-2.7 1.9,0 3.8,0.3 5.6,1 L 43.6,35 c -1.9,-0.8 -4.5,-1.2 -7.2,-1.2 z"
   id="path3169"
   inkscape:connector-curvature="0"
   style="fill:#006655" />
			</g>
			<g
   id="g3171">
				<polygon
   class="st1"
   points="104.1,34.3 96.3,34.3 96.3,63.9 114.4,63.9 114.4,58 104.1,58 "
   id="polygon3173"
   style="fill:#006655" />
			</g>
		</g>
	</g><g
     id="g3175">
		<g
   id="g3177">
			<path
   class="st4"
   d="m 24.6,75.1 h 1.5 v 6.2 H 29 v 1.2 h -4.4 v -7.4 z"
   id="path3179"
   inkscape:connector-curvature="0"
   style="fill:#6d6e71" />
			<path
   class="st4"
   d="m 30.1,77.3 c 0.6,-0.3 1.3,-0.4 1.9,-0.4 1.7,0 2.4,0.7 2.4,2.3 v 0.7 c 0,0.6 0,1 0,1.4 0,0.4 0,0.8 0.1,1.2 h -1.3 c -0.1,-0.3 -0.1,-0.6 -0.1,-0.8 h 0 c -0.3,0.6 -1,0.9 -1.7,0.9 -1,0 -1.9,-0.6 -1.9,-1.6 0,-0.8 0.4,-1.3 0.9,-1.6 0.5,-0.3 1.2,-0.3 1.8,-0.3 H 33 c 0,-0.9 -0.4,-1.2 -1.2,-1.2 -0.6,0 -1.2,0.2 -1.7,0.6 l 0,-1.2 z m 1.6,4.3 c 0.4,0 0.8,-0.2 1,-0.5 C 32.9,80.8 33,80.4 33,80 h -0.6 c -0.6,0 -1.6,0.1 -1.6,0.9 0,0.5 0.4,0.7 0.9,0.7 z"
   id="path3181"
   inkscape:connector-curvature="0"
   style="fill:#6d6e71" />
			<path
   class="st4"
   d="m 43.1,82.2 c -0.5,0.3 -1.1,0.4 -1.9,0.4 -1.8,0 -2.9,-1 -2.9,-2.8 0,-1.6 0.8,-2.9 2.5,-2.9 2,0 2.6,1.4 2.6,3.3 h -3.8 c 0.1,0.9 0.7,1.4 1.6,1.4 0.7,0 1.3,-0.3 1.8,-0.6 v 1.2 z m -1,-3 c 0,-0.7 -0.4,-1.3 -1.2,-1.3 -0.8,0 -1.2,0.6 -1.3,1.3 h 2.5 z"
   id="path3183"
   inkscape:connector-curvature="0"
   style="fill:#6d6e71" />
			<path
   class="st4"
   d="m 48.2,81.9 0,0 c -0.4,0.5 -1,0.7 -1.7,0.7 -1.7,0 -2.3,-1.4 -2.3,-2.9 0,-1.5 0.6,-2.8 2.3,-2.8 0.7,0 1.2,0.2 1.6,0.8 h 0 v -3.1 h 1.4 v 8 h -1.4 v -0.7 z m -1.3,-0.4 c 0.9,0 1.3,-1 1.3,-1.8 0,-0.8 -0.4,-1.7 -1.3,-1.7 -0.9,0 -1.2,1 -1.2,1.7 0,0.8 0.3,1.8 1.2,1.8 z"
   id="path3185"
   inkscape:connector-curvature="0"
   style="fill:#6d6e71" />
			<path
   class="st4"
   d="m 56.1,82.5 h -1.3 v -0.7 h 0 c -0.4,0.5 -1.1,0.9 -1.8,0.9 -1.3,0 -1.9,-0.9 -1.9,-2.1 V 77 h 1.4 v 2.9 c 0,0.7 0,1.6 0.9,1.6 1,0 1.3,-1.1 1.3,-1.8 V 77 h 1.4 v 5.5 z"
   id="path3187"
   inkscape:connector-curvature="0"
   style="fill:#6d6e71" />
			<path
   class="st4"
   d="m 61.1,78.2 c -0.3,-0.1 -0.5,-0.2 -1,-0.2 -0.9,0 -1.4,0.7 -1.4,1.7 0,1 0.5,1.8 1.5,1.8 0.4,0 0.8,-0.1 1.1,-0.3 l 0.1,1.2 c -0.4,0.1 -0.8,0.2 -1.4,0.2 -1.8,0 -2.7,-1.2 -2.7,-2.9 0,-1.6 0.9,-2.8 2.6,-2.8 0.6,0 1,0.1 1.4,0.2 l -0.2,1.1 z"
   id="path3189"
   inkscape:connector-curvature="0"
   style="fill:#6d6e71" />
			<path
   class="st4"
   d="m 62.5,77.3 c 0.6,-0.3 1.3,-0.4 1.9,-0.4 1.7,0 2.4,0.7 2.4,2.3 v 0.7 c 0,0.6 0,1 0,1.4 0,0.4 0,0.8 0.1,1.2 h -1.3 c -0.1,-0.3 -0.1,-0.6 -0.1,-0.8 h 0 c -0.3,0.6 -1,0.9 -1.7,0.9 -1,0 -1.9,-0.6 -1.9,-1.6 0,-0.8 0.4,-1.3 0.9,-1.6 0.5,-0.3 1.2,-0.3 1.8,-0.3 h 0.8 c 0,-0.9 -0.4,-1.2 -1.2,-1.2 -0.6,0 -1.2,0.2 -1.7,0.6 l 0,-1.2 z m 1.7,4.3 c 0.4,0 0.8,-0.2 1,-0.5 0.2,-0.3 0.3,-0.7 0.3,-1.1 h -0.6 c -0.6,0 -1.6,0.1 -1.6,0.9 0,0.5 0.4,0.7 0.9,0.7 z"
   id="path3191"
   inkscape:connector-curvature="0"
   style="fill:#6d6e71" />
			<path
   class="st4"
   d="m 71.7,78.2 c -0.3,-0.1 -0.5,-0.2 -1,-0.2 -0.9,0 -1.4,0.7 -1.4,1.7 0,1 0.5,1.8 1.5,1.8 0.4,0 0.8,-0.1 1.1,-0.3 l 0.1,1.2 c -0.4,0.1 -0.8,0.2 -1.4,0.2 -1.8,0 -2.7,-1.2 -2.7,-2.9 0,-1.6 0.9,-2.8 2.6,-2.8 0.6,0 1,0.1 1.4,0.2 l -0.2,1.1 z"
   id="path3193"
   inkscape:connector-curvature="0"
   style="fill:#6d6e71" />
			<path
   class="st4"
   d="m 72.9,74.7 h 1.4 V 76 h -1.4 v -1.3 z m 0,2.3 h 1.4 v 5.5 H 72.9 V 77 z"
   id="path3195"
   inkscape:connector-curvature="0"
   style="fill:#6d6e71" />
			<path
   class="st4"
   d="m 78.3,76.9 c 1.6,0 2.9,1.1 2.9,2.9 0,1.6 -1.1,2.8 -2.9,2.8 -1.8,0 -2.9,-1.3 -2.9,-2.8 0.1,-1.8 1.3,-2.9 2.9,-2.9 z m 0,4.6 c 1.1,0 1.4,-1 1.4,-1.9 0,-0.8 -0.4,-1.6 -1.4,-1.6 -0.9,0 -1.4,0.8 -1.4,1.6 0.1,0.9 0.4,1.9 1.4,1.9 z m 0.1,-6.8 h 1.5 l -1.5,1.5 h -0.9 l 0.9,-1.5 z"
   id="path3197"
   inkscape:connector-curvature="0"
   style="fill:#6d6e71" />
			<path
   class="st4"
   d="m 82.3,77 h 1.3 v 0.7 h 0 c 0.4,-0.6 1.1,-0.9 1.8,-0.9 1.3,0 1.9,0.9 1.9,2.1 v 3.5 h -1.4 v -2.9 c 0,-0.7 0,-1.6 -0.9,-1.6 -1,0 -1.3,1.1 -1.3,1.8 v 2.7 H 82.3 V 77 z"
   id="path3199"
   inkscape:connector-curvature="0"
   style="fill:#6d6e71" />
			<path
   class="st4"
   d="m 96.1,82.2 c -0.5,0.3 -1.1,0.4 -1.9,0.4 -1.8,0 -2.9,-1 -2.9,-2.8 0,-1.6 0.8,-2.9 2.5,-2.9 2,0 2.6,1.4 2.6,3.3 h -3.8 c 0.1,0.9 0.7,1.4 1.6,1.4 0.7,0 1.3,-0.3 1.8,-0.6 v 1.2 z m -0.9,-3 c 0,-0.7 -0.4,-1.3 -1.2,-1.3 -0.8,0 -1.2,0.6 -1.3,1.3 h 2.5 z"
   id="path3201"
   inkscape:connector-curvature="0"
   style="fill:#6d6e71" />
			<path
   class="st4"
   d="m 97.1,77 h 1.5 l 1.4,4 h 0 l 1.3,-4 h 1.4 l -2,5.5 h -1.6 l -2,-5.5 z"
   id="path3203"
   inkscape:connector-curvature="0"
   style="fill:#6d6e71" />
			<path
   class="st4"
   d="m 106.1,76.9 c 1.6,0 2.9,1.1 2.9,2.9 0,1.6 -1.1,2.8 -2.9,2.8 -1.8,0 -2.9,-1.3 -2.9,-2.8 0,-1.8 1.3,-2.9 2.9,-2.9 z m 0,4.6 c 1.1,0 1.4,-1 1.4,-1.9 0,-0.8 -0.4,-1.6 -1.4,-1.6 -0.9,0 -1.4,0.8 -1.4,1.6 0,0.9 0.3,1.9 1.4,1.9 z"
   id="path3205"
   inkscape:connector-curvature="0"
   style="fill:#6d6e71" />
			<path
   class="st4"
   d="m 110.1,74.5 h 1.4 v 8 h -1.4 v -8 z"
   id="path3207"
   inkscape:connector-curvature="0"
   style="fill:#6d6e71" />
			<path
   class="st4"
   d="m 118,82.5 h -1.3 v -0.7 h 0 c -0.4,0.5 -1.1,0.9 -1.8,0.9 -1.3,0 -1.9,-0.9 -1.9,-2.1 V 77 h 1.4 v 2.9 c 0,0.7 0,1.6 0.9,1.6 1,0 1.3,-1.1 1.3,-1.8 V 77 h 1.4 v 5.5 z"
   id="path3209"
   inkscape:connector-curvature="0"
   style="fill:#6d6e71" />
			<path
   class="st4"
   d="m 123,78.2 c -0.3,-0.1 -0.5,-0.2 -1,-0.2 -0.9,0 -1.4,0.7 -1.4,1.7 0,1 0.5,1.8 1.5,1.8 0.4,0 0.8,-0.1 1.1,-0.3 l 0.1,1.2 c -0.4,0.1 -0.8,0.2 -1.4,0.2 -1.8,0 -2.7,-1.2 -2.7,-2.9 0,-1.6 0.9,-2.8 2.6,-2.8 0.6,0 1,0.1 1.4,0.2 l -0.2,1.1 z"
   id="path3211"
   inkscape:connector-curvature="0"
   style="fill:#6d6e71" />
			<path
   class="st4"
   d="m 124.2,74.7 h 1.4 V 76 h -1.4 v -1.3 z m 0,2.3 h 1.4 v 5.5 h -1.4 V 77 z"
   id="path3213"
   inkscape:connector-curvature="0"
   style="fill:#6d6e71" />
			<path
   class="st4"
   d="m 129.7,76.9 c 1.6,0 2.9,1.1 2.9,2.9 0,1.6 -1.1,2.8 -2.9,2.8 -1.8,0 -2.9,-1.3 -2.9,-2.8 0,-1.8 1.3,-2.9 2.9,-2.9 z m 0,4.6 c 1.1,0 1.4,-1 1.4,-1.9 0,-0.8 -0.4,-1.6 -1.4,-1.6 -0.9,0 -1.4,0.8 -1.4,1.6 0,0.9 0.3,1.9 1.4,1.9 z"
   id="path3215"
   inkscape:connector-curvature="0"
   style="fill:#6d6e71" />
			<path
   class="st4"
   d="m 133.7,77 h 1.3 v 0.7 h 0 c 0.4,-0.6 1.1,-0.9 1.8,-0.9 1.3,0 1.9,0.9 1.9,2.1 v 3.5 h -1.4 v -2.9 c 0,-0.7 0,-1.6 -0.9,-1.6 -1,0 -1.3,1.1 -1.3,1.8 v 2.7 h -1.4 V 77 z"
   id="path3217"
   inkscape:connector-curvature="0"
   style="fill:#6d6e71" />
			<path
   class="st4"
   d="m 140.4,77.3 c 0.6,-0.3 1.3,-0.4 1.9,-0.4 1.7,0 2.4,0.7 2.4,2.3 v 0.7 c 0,0.6 0,1 0,1.4 0,0.4 0,0.8 0.1,1.2 h -1.3 c -0.1,-0.3 -0.1,-0.6 -0.1,-0.8 h 0 c -0.3,0.6 -1,0.9 -1.7,0.9 -1,0 -1.9,-0.6 -1.9,-1.6 0,-0.8 0.4,-1.3 0.9,-1.6 0.5,-0.3 1.2,-0.3 1.8,-0.3 h 0.8 c 0,-0.9 -0.4,-1.2 -1.2,-1.2 -0.6,0 -1.2,0.2 -1.7,0.6 l 0,-1.2 z m 1.6,4.3 c 0.4,0 0.8,-0.2 1,-0.5 0.2,-0.3 0.3,-0.7 0.3,-1.1 h -0.6 c -0.6,0 -1.6,0.1 -1.6,0.9 0,0.5 0.4,0.7 0.9,0.7 z"
   id="path3219"
   inkscape:connector-curvature="0"
   style="fill:#6d6e71" />
		</g>
	</g></g>
</svg>