<?xml version="1.0" encoding="UTF-8" standalone="no"?>
<!-- Created with Inkscape (http://www.inkscape.org/) -->

<svg
   xmlns:dc="http://purl.org/dc/elements/1.1/"
   xmlns:cc="http://creativecommons.org/ns#"
   xmlns:rdf="http://www.w3.org/1999/02/22-rdf-syntax-ns#"
   xmlns:svg="http://www.w3.org/2000/svg"
   xmlns="http://www.w3.org/2000/svg"
   xmlns:sodipodi="http://sodipodi.sourceforge.net/DTD/sodipodi-0.dtd"
   xmlns:inkscape="http://www.inkscape.org/namespaces/inkscape"
   width="182.99539"
   height="330.62985"
   id="svg2"
   version="1.1"
   inkscape:version="0.48.1 "
   sodipodi:docname="Universidad_Nacional_de_Córdoba_400_años_logo_2.svg">
  <title
     id="title4474">Commemorative logo of National University of Cordoba for the celebration of its 400 years. Cordoba City, Argentina.</title>
  <defs
     id="defs4" />
  <sodipodi:namedview
     id="base"
     pagecolor="#ffffff"
     bordercolor="#666666"
     borderopacity="1.0"
     inkscape:pageopacity="0.0"
     inkscape:pageshadow="2"
     inkscape:zoom="1.4142136"
     inkscape:cx="79.987526"
     inkscape:cy="11.950441"
     inkscape:document-units="px"
     inkscape:current-layer="layer3"
     showgrid="false"
     inkscape:snap-global="false"
     inkscape:window-width="800"
     inkscape:window-height="544"
     inkscape:window-x="-4"
     inkscape:window-y="-4"
     inkscape:window-maximized="1"
     showguides="true"
     inkscape:guide-bbox="true"
     fit-margin-top="0"
     fit-margin-left="0"
     fit-margin-right="0"
     fit-margin-bottom="0" />
  <metadata
     id="metadata7">
    <rdf:RDF>
      <cc:Work
         rdf:about="">
        <dc:format>image/svg+xml</dc:format>
        <dc:type
           rdf:resource="http://purl.org/dc/dcmitype/StillImage" />
        <dc:title>Commemorative logo of National University of Cordoba for the celebration of its 400 years. Cordoba City, Argentina.</dc:title>
        <dc:date>2012-03-20</dc:date>
        <cc:license
           rdf:resource="http://creativecommons.org/licenses/by-sa/3.0/" />
        <dc:creator>
          <cc:Agent>
            <dc:title>http://es.wikipedia.org/wiki/Usuario:Alakasam</dc:title>
          </cc:Agent>
        </dc:creator>
        <dc:rights>
          <cc:Agent>
            <dc:title>cc-by-sa</dc:title>
          </cc:Agent>
        </dc:rights>
      </cc:Work>
      <cc:License
         rdf:about="http://creativecommons.org/licenses/by-sa/3.0/">
        <cc:permits
           rdf:resource="http://creativecommons.org/ns#Reproduction" />
        <cc:permits
           rdf:resource="http://creativecommons.org/ns#Distribution" />
        <cc:requires
           rdf:resource="http://creativecommons.org/ns#Notice" />
        <cc:requires
           rdf:resource="http://creativecommons.org/ns#Attribution" />
        <cc:permits
           rdf:resource="http://creativecommons.org/ns#DerivativeWorks" />
        <cc:requires
           rdf:resource="http://creativecommons.org/ns#ShareAlike" />
      </cc:License>
    </rdf:RDF>
  </metadata>
  <g
     inkscape:groupmode="layer"
     id="layer2"
     inkscape:label="cuadrados"
     style="display:inline"
     transform="translate(-271.85301,-220.64902)">
    <rect
       style="color:#000000;fill:#104a89;fill-opacity:1;stroke:#104a89;stroke-width:4.04867792;stroke-linecap:round;stroke-linejoin:miter;stroke-miterlimit:4;stroke-opacity:1;stroke-dasharray:none;stroke-dashoffset:0;marker:none;visibility:visible;display:inline;overflow:visible;enable-background:accumulate"
       id="rect2996"
       width="34.661324"
       height="34.661324"
       x="282.99911"
       y="396.55304"
       ry="0" />
    <rect
       style="color:#000000;fill:#104a89;fill-opacity:1;stroke:#104a89;stroke-width:4.04867792;stroke-linecap:round;stroke-linejoin:miter;stroke-miterlimit:4;stroke-opacity:1;stroke-dasharray:none;stroke-dashoffset:0;marker:none;visibility:visible;display:inline;overflow:visible;enable-background:accumulate"
       id="rect2996-1"
       width="34.661324"
       height="34.661324"
       x="326.77356"
       y="396.55304"
       ry="0" />
    <rect
       style="color:#000000;fill:#104a89;fill-opacity:1;stroke:#104a89;stroke-width:4.04867792;stroke-linecap:round;stroke-linejoin:miter;stroke-miterlimit:4;stroke-opacity:1;stroke-dasharray:none;stroke-dashoffset:0;marker:none;visibility:visible;display:inline;overflow:visible;enable-background:accumulate"
       id="rect2996-7"
       width="34.661324"
       height="34.661324"
       x="369.83829"
       y="396.55304"
       ry="0" />
    <rect
       style="color:#000000;fill:#104a89;fill-opacity:1;stroke:#104a89;stroke-width:4.04867792;stroke-linecap:round;stroke-linejoin:miter;stroke-miterlimit:4;stroke-opacity:1;stroke-dasharray:none;stroke-dashoffset:0;marker:none;visibility:visible;display:inline;overflow:visible;enable-background:accumulate"
       id="rect2996-4"
       width="34.661324"
       height="34.661324"
       x="413.93671"
       y="396.55304"
       ry="0" />
    <rect
       style="color:#000000;fill:#a6275e;fill-opacity:1;stroke:none;stroke-width:4.04867792;marker:none;visibility:visible;display:inline;overflow:visible;enable-background:accumulate"
       id="rect2996-0"
       width="34.661324"
       height="34.661324"
       x="308.33374"
       y="273.38306"
       ry="0"
       transform="matrix(0.99516295,0.09823802,-0.09823802,0.99516295,0,0)" />
    <rect
       style="color:#000000;fill:#5e3176;fill-opacity:1;stroke:#5e3176;stroke-width:3.8462441;stroke-linecap:round;stroke-linejoin:miter;stroke-miterlimit:4;stroke-opacity:1;stroke-dasharray:none;stroke-dashoffset:0;marker:none;visibility:visible;display:inline;overflow:visible;enable-background:accumulate"
       id="rect2996-9"
       width="32.928257"
       height="32.928257"
       x="350.3371"
       y="318.98761"
       ry="0"
       transform="matrix(0.997794,0.06638631,-0.06638631,0.997794,0,0)" />
    <rect
       style="color:#000000;fill:#5e3176;fill-opacity:1;stroke:#5e3176;stroke-width:3.8462441;stroke-linecap:round;stroke-linejoin:miter;stroke-miterlimit:4;stroke-opacity:1;stroke-dasharray:none;stroke-dashoffset:0;marker:none;visibility:visible;display:inline;overflow:visible;enable-background:accumulate"
       id="rect2996-48"
       width="32.928257"
       height="32.928257"
       x="352.0936"
       y="367.04935"
       ry="0"
       transform="matrix(0.99870402,-0.05089483,0.05089483,0.99870402,0,0)" />
    <rect
       style="color:#000000;fill:#5e3176;fill-opacity:1;stroke:#5e3176;stroke-width:3.8462441;stroke-linecap:round;stroke-linejoin:miter;stroke-miterlimit:4;stroke-opacity:1;stroke-dasharray:none;stroke-dashoffset:0;marker:none;visibility:visible;display:inline;overflow:visible;enable-background:accumulate"
       id="rect2996-4-4"
       width="32.928257"
       height="32.928257"
       x="414.80325"
       y="351.41959"
       ry="0" />
    <rect
       style="color:#000000;fill:#104a89;fill-opacity:1;stroke:#104a89;stroke-width:4.04867792;stroke-linecap:round;stroke-linejoin:miter;stroke-miterlimit:4;stroke-opacity:1;stroke-dasharray:none;stroke-dashoffset:0;marker:none;visibility:visible;display:inline;overflow:visible;enable-background:accumulate"
       id="rect2996-5"
       width="34.661324"
       height="34.661324"
       x="282.99911"
       y="396.55304"
       ry="0" />
    <rect
       style="color:#000000;fill:#a6275e;fill-opacity:1;stroke:none;stroke-width:4.04867792;marker:none;visibility:visible;display:inline;overflow:visible;enable-background:accumulate"
       id="rect2996-51"
       width="34.661324"
       height="34.661324"
       x="356.89728"
       y="241.32567"
       ry="0"
       transform="matrix(0.99297295,0.11834152,-0.11834152,0.99297295,0,0)" />
    <rect
       style="color:#000000;fill:#a6275e;fill-opacity:1;stroke:none;stroke-width:4.04867792;marker:none;visibility:visible;display:inline;overflow:visible;enable-background:accumulate"
       id="rect2996-71"
       width="34.661324"
       height="34.661324"
       x="318.6962"
       y="347.34921"
       ry="0"
       transform="matrix(0.98902364,-0.14775737,0.14775737,0.98902364,0,0)" />
    <rect
       style="color:#000000;fill:#a6275e;fill-opacity:1;stroke:none;stroke-width:4.04867792;marker:none;visibility:visible;display:inline;overflow:visible;enable-background:accumulate"
       id="rect2996-15"
       width="34.661324"
       height="34.661324"
       x="466.29718"
       y="217.9581"
       ry="0"
       transform="matrix(0.98443108,0.17577102,-0.17577102,0.98443108,0,0)" />
    <rect
       style="color:#000000;fill:#5e3176;fill-opacity:1;stroke:#5e3176;stroke-width:3.8462441;stroke-linecap:round;stroke-linejoin:miter;stroke-miterlimit:4;stroke-opacity:1;stroke-dasharray:none;stroke-dashoffset:0;marker:none;visibility:visible;display:inline;overflow:visible;enable-background:accumulate"
       id="rect2996-9-2"
       width="32.928257"
       height="32.928257"
       x="245.05446"
       y="378.39114"
       ry="0"
       transform="matrix(0.99554859,-0.09424965,0.09424965,0.99554859,0,0)" />
    <rect
       style="color:#000000;fill:#d22334;fill-opacity:1;stroke:none;stroke-width:4.04867792;marker:none;visibility:visible;display:inline;overflow:visible;enable-background:accumulate"
       id="rect2996-0-7"
       width="32.928257"
       height="32.928257"
       x="107.37979"
       y="363.13315"
       ry="0"
       transform="matrix(0.87114149,-0.49103207,0.49103207,0.87114149,0,0)" />
    <rect
       style="color:#000000;fill:#d22334;fill-opacity:1;stroke:none;stroke-width:4.04867792;marker:none;visibility:visible;display:inline;overflow:visible;enable-background:accumulate"
       id="rect2996-0-6"
       width="32.928257"
       height="32.928257"
       x="393.39285"
       y="70.353889"
       ry="0"
       transform="matrix(0.91793779,0.39672436,-0.39672436,0.91793779,0,0)" />
    <rect
       style="color:#000000;fill:#d22334;fill-opacity:1;stroke:none;stroke-width:4.04867792;marker:none;visibility:visible;display:inline;overflow:visible;enable-background:accumulate"
       id="rect2996-0-1"
       width="32.928257"
       height="32.928257"
       x="280.10855"
       y="346.2818"
       ry="0"
       transform="matrix(0.95733675,-0.28897466,0.28897466,0.95733675,0,0)" />
    <rect
       style="color:#000000;fill:#d22334;fill-opacity:1;stroke:none;stroke-width:4.04867792;marker:none;visibility:visible;display:inline;overflow:visible;enable-background:accumulate"
       id="rect2996-0-4"
       width="32.928257"
       height="32.928257"
       x="374.41721"
       y="309.33035"
       ry="0"
       transform="matrix(0.98836489,-0.15210146,0.15210146,0.98836489,0,0)" />
  </g>
  <g
     inkscape:groupmode="layer"
     id="layer3"
     inkscape:label="texto"
     style="display:inline"
     transform="translate(-271.85301,-220.64902)">
    <g
       transform="scale(1.0266059,0.97408363)"
       style="font-size:36.95781326px;font-style:normal;font-variant:normal;font-weight:normal;font-stretch:normal;text-align:start;line-height:125%;letter-spacing:0px;word-spacing:0px;writing-mode:lr-tb;text-anchor:start;fill:#000000;fill-opacity:1;stroke:none;font-family:Trebuchet MS;-inkscape-font-specification:Trebuchet MS"
       id="text4470">
      <path
         d="m 369.60889,565.495 -1.82262,-5.57616 -9.83497,0 -1.94895,5.57616 -4.04226,0 10.73726,-26.79803 0.95643,0 9.96128,26.79803 z m -6.60476,-19.86844 -4.0964,11.63955 7.84992,0 z"
         style="line-height:125%;fill:#000000;font-family:Trebuchet MS;-inkscape-font-specification:Trebuchet MS"
         id="path3010" />
      <path
         d="m 393.48349,565.85591 -13.66067,-19.32706 0,18.96615 -3.4287,0 0,-26.43711 1.44366,0 13.29976,18.2804 0,-18.2804 3.4287,0 0,26.79802 z m -2.97755,-32.699 c -0.63764,2.49035 -1.79257,3.73551 -3.4648,3.73548 -0.75793,3e-5 -1.59105,-0.23156 -2.49934,-0.69476 -0.90832,-0.46315 -1.54894,-0.69474 -1.92188,-0.69477 -0.85418,3e-5 -1.50383,0.46321 -1.94895,1.38953 l -1.64217,0 c 0.16843,-1.01053 0.55641,-1.88576 1.16396,-2.62566 0.60753,-0.73985 1.32636,-1.10979 2.15647,-1.10982 0.9865,3e-5 1.89781,0.23162 2.73394,0.69476 0.83611,0.46321 1.46471,0.6948 1.88579,0.69477 0.97446,3e-5 1.62411,-0.46315 1.94895,-1.38953 z"
         style="line-height:125%;fill:#000000;font-family:Trebuchet MS;-inkscape-font-specification:Trebuchet MS"
         id="path3012" />
      <path
         d="m 398.73483,552.05087 c -10e-6,-3.8257 0.95943,-7.02582 2.8783,-9.60037 1.91887,-2.57451 4.50844,-3.86178 7.76872,-3.8618 3.6693,2e-5 6.48144,1.18503 8.43642,3.55502 1.95494,2.37004 2.93242,5.67242 2.93244,9.90715 -2e-5,4.34303 -0.98051,7.74466 -2.94147,10.2049 -1.96099,2.46025 -4.77012,3.69037 -8.42739,3.69037 -3.33247,0 -5.94008,-1.2993 -7.82286,-3.89789 -1.88278,-2.59859 -2.82417,-5.93105 -2.82416,-9.99738 z m 3.78961,0 c 0,3.0317 0.59852,5.56413 1.79556,7.59728 1.19703,2.03317 2.88431,3.04975 5.06185,3.04974 2.46625,10e-6 4.34602,-0.93236 5.63932,-2.7971 1.29326,-1.86472 1.9399,-4.48136 1.93992,-7.84992 -2e-5,-6.80927 -2.52643,-10.2139 -7.57924,-10.21393 -2.23769,3e-5 -3.94001,0.91435 -5.10696,2.74296 -1.16697,1.82867 -1.75045,4.31898 -1.75045,7.47097 z"
         style="line-height:125%;fill:#000000;font-family:Trebuchet MS;-inkscape-font-specification:Trebuchet MS"
         id="path3014" />
      <path
         d="m 423.71022,564.28593 1.31735,-3.32043 c 0.6737,0.49325 1.51283,0.9053 2.51739,1.23614 1.00454,0.33084 1.90382,0.49626 2.69784,0.49625 1.40757,10e-6 2.53844,-0.38497 3.39262,-1.15493 0.85415,-0.76995 1.28124,-1.75043 1.28125,-2.94146 -1e-5,-0.89026 -0.23762,-1.71735 -0.71281,-2.4813 -0.47522,-0.76393 -1.66925,-1.59704 -3.58209,-2.49935 l -2.12941,-0.99252 c -1.80458,-0.84212 -3.06478,-1.84065 -3.7806,-2.9956 -0.71581,-1.15491 -1.07372,-2.54444 -1.07372,-4.16858 0,-1.97299 0.69777,-3.60914 2.09331,-4.90846 1.39554,-1.29927 3.18809,-1.94892 5.37765,-1.94895 2.92341,3e-5 4.95657,0.47523 6.09949,1.42562 l -1.06471,3.13997 c -0.48123,-0.34886 -1.21509,-0.68572 -2.20159,-1.01056 -0.98651,-0.3248 -1.90083,-0.48722 -2.74296,-0.48724 -1.22712,2e-5 -2.19257,0.34891 -2.89635,1.04666 -0.70379,0.69779 -1.05568,1.59406 -1.05568,2.68882 0,0.67373 0.12632,1.28729 0.37896,1.84067 0.25264,0.55343 0.60453,1.0166 1.05568,1.38953 0.45114,0.37296 1.37448,0.89629 2.77003,1.56999 l 2.1655,1.02861 c 1.80457,0.85418 3.07078,1.87377 3.79864,3.05876 0.72783,1.18502 1.09176,2.69184 1.09177,4.52048 -1e-5,1.98504 -0.79703,3.66931 -2.39107,5.05282 -1.59405,1.38351 -3.72647,2.07527 -6.39723,2.07527 -2.34596,0 -4.34905,-0.5534 -6.00926,-1.66021 z"
         style="line-height:125%;fill:#000000;font-family:Trebuchet MS;-inkscape-font-specification:Trebuchet MS"
         id="path3016" />
    </g>
    <g
       transform="matrix(2.4115374,0,0,2.4115374,-672.2584,-951.44807)"
       style="fill-rule:evenodd;stroke:#000000;stroke-opacity:1"
       id="g20">
      <path
         inkscape:connector-curvature="0"
         style="fill:#000000;fill-opacity:1;stroke:#000000;stroke-opacity:1"
         d="m 437.113,597.397 -15.517,-16.092 -0.438,0 0,24.87 4.081,0 0,-15.315 15.545,16.098 0.446,0 0,-24.872 -4.117,0 0,15.311 z"
         id="path22" />
      <path
         inkscape:connector-curvature="0"
         style="fill:#000000;fill-opacity:1;stroke:#000000;stroke-opacity:1"
         d="m 411.697,596.034 c 0,4.731 -2.008,7.144 -5.787,7.144 -3.843,0 -5.852,-2.38 -5.852,-7.043 l 0,-14.049 -4.286,0 0,14.086 c 0,7.043 3.744,10.786 10.039,10.786 5.749,0 9.661,-3.813 9.661,-10.856 l 0,-14.016 -3.775,0 0,13.948 z"
         id="path24" />
      <path
         inkscape:connector-curvature="0"
         style="fill:#000000;fill-opacity:1;stroke:#000000;stroke-opacity:1"
         d="m 449.903,594.096 c 0,-5.309 3.475,-8.917 8.168,-8.917 2.378,0 4.457,1.024 6.365,3.066 l 0.438,-4.697 c -2.21,-1.53 -4.526,-2.279 -7.077,-2.279 -6.973,0 -12.246,5.439 -12.246,12.861 0,4.218 1.701,7.823 4.657,10.207 2.113,1.703 4.731,2.621 7.488,2.621 2.619,0 5.106,-0.82 7.246,-2.35 l 0.24,-5.34 c -2.35,2.381 -4.663,3.569 -7.354,3.569 -4.621,0 -7.925,-3.673 -7.925,-8.741 z"
         id="path26" />
    </g>
    <g
       style="font-size:36px;font-style:normal;font-variant:normal;font-weight:bold;font-stretch:normal;line-height:125%;letter-spacing:0px;word-spacing:0px;fill:#000000;fill-opacity:1;stroke:none;display:inline;font-family:Calibri;-inkscape-font-specification:Calibri Bold"
       id="text3014"
       transform="translate(217.29688,99.28125)">
      <path
         d="m 74.067852,451.27887 0,-5.18555 -10.546875,0 0,-4.32422 11.179688,-16.36523 4.148437,0 0,16.34766 3.199219,0 0,4.34179 -3.199219,0 0,5.18555 z m 0,-9.52734 0,-8.80664 -5.923828,8.80664 z"
         style="font-weight:bold;font-family:Arial;-inkscape-font-specification:Arial Bold"
         id="path3027"
         inkscape:connector-curvature="0" />
      <path
         d="m 107.92137,438.34528 c -3e-5,3.60938 -1.06708,6.71745 -3.20117,9.32421 -2.27737,2.79297 -5.184917,4.18946 -8.72266,4.18946 -3.523448,0 -6.423835,-1.39649 -8.701172,-4.18946 -2.14844,-2.62108 -3.222658,-5.72915 -3.222657,-9.32421 -10e-7,-3.59504 1.074217,-6.68879 3.222657,-9.28125 2.277337,-2.7643 5.177724,-4.14646 8.701172,-4.14649 3.537743,3e-5 6.44529,1.37503 8.72266,4.125 2.13409,2.59247 3.20114,5.69338 3.20117,9.30274 z m -5.04883,0 c -2e-5,-2.20572 -0.5801,-4.11066 -1.74023,-5.71485 -1.289084,-1.7617 -3.000671,-2.64255 -5.13477,-2.64258 -2.134126,3e-5 -3.838551,0.88088 -5.113282,2.64258 -1.131517,1.57554 -1.697272,3.48049 -1.697265,5.71485 -7e-6,2.20574 0.572909,4.11784 1.71875,5.73632 1.289053,1.8047 2.986317,2.70704 5.091797,2.70704 2.033839,0 3.723941,-0.92383 5.07031,-2.77149 1.20311,-1.67577 1.80467,-3.56639 1.80469,-5.67187 z"
         style="font-size:44px;font-weight:normal;line-height:125%;font-family:Berlin Sans FB;-inkscape-font-specification:Berlin Sans FB"
         id="path3029"
         inkscape:connector-curvature="0" />
      <path
         d="m 134.21824,438.34528 c -2e-5,3.60938 -1.06708,6.71745 -3.20117,9.32421 -2.27736,2.79297 -5.18491,4.18946 -8.72266,4.18946 -3.52344,0 -6.42383,-1.39649 -8.70117,-4.18946 -2.14844,-2.62108 -3.22265,-5.72915 -3.22265,-9.32421 0,-3.59504 1.07421,-6.68879 3.22265,-9.28125 2.27734,-2.7643 5.17773,-4.14646 8.70117,-4.14649 3.53775,3e-5 6.4453,1.37503 8.72266,4.125 2.13409,2.59247 3.20115,5.69338 3.20117,9.30274 z m -5.04883,0 c -2e-5,-2.20572 -0.58009,-4.11066 -1.74023,-5.71485 -1.28908,-1.7617 -3.00067,-2.64255 -5.13477,-2.64258 -2.13412,3e-5 -3.83855,0.88088 -5.11328,2.64258 -1.13151,1.57554 -1.69727,3.48049 -1.69726,5.71485 -10e-6,2.20574 0.57291,4.11784 1.71875,5.73632 1.28905,1.8047 2.98631,2.70704 5.09179,2.70704 2.03384,0 3.72395,-0.92383 5.07032,-2.77149 1.2031,-1.67577 1.80466,-3.56639 1.80468,-5.67187 z"
         style="font-size:44px;font-weight:normal;line-height:125%;font-family:Berlin Sans FB;-inkscape-font-specification:Berlin Sans FB"
         id="path3031"
         inkscape:connector-curvature="0" />
    </g>
  </g>
</svg>
