<?xml version="1.0" encoding="UTF-8" standalone="no"?>
<svg
   xmlns:dc="http://purl.org/dc/elements/1.1/"
   xmlns:cc="http://creativecommons.org/ns#"
   xmlns:rdf="http://www.w3.org/1999/02/22-rdf-syntax-ns#"
   xmlns:svg="http://www.w3.org/2000/svg"
   xmlns="http://www.w3.org/2000/svg"
   xml:space="preserve"
   enable-background="new 30.864 -1.338 157.31 25.931"
   viewBox="30.864 -1.338 491.92999 137.79079"
   height="137.79079"
   width="491.92999"
   y="0px"
   x="0px"
   id="Layer_1"
   version="1.1"><metadata
     id="metadata4014"><rdf:RDF><cc:Work
         rdf:about=""><dc:format>image/svg+xml</dc:format><dc:type
           rdf:resource="http://purl.org/dc/dcmitype/StillImage" /><dc:title></dc:title></cc:Work></rdf:RDF></metadata><defs
     id="defs4012" /><g
     transform="matrix(3,0,0,3,-51.728,32.676785)"
     style="fill:#333333;fill-opacity:1"
     id="g4007"><g
       style="fill:#333333;fill-opacity:1"
       id="g3945"><path
         style="clip-rule:evenodd;fill:#333333;fill-opacity:1;fill-rule:evenodd"
         id="path3941"
         d="m 36.446,15.789 c -0.198,-0.344 -0.243,-0.657 0.007,-1.031 0.132,-0.198 0.032,-0.538 0.079,-0.806 0.067,-0.375 0.173,-0.742 0.266,-1.113 0.012,-0.047 0.059,-0.089 0.061,-0.135 0.03,-0.521 0.384,-0.952 0.356,-1.504 -0.021,-0.4 0.082,-0.821 0.198,-1.212 C 37.742,8.884 37.538,7.75 37.653,6.636 37.689,6.283 37.842,5.942 37.867,5.59 37.933,4.658 38,3.723 37.984,2.79 37.973,2.141 37.463,1.821 36.824,1.924 36.029,2.051 35.321,2.366 34.588,2.701 33.837,3.044 33.173,3.506 32.452,3.88 31.93,4.151 31.21,4.035 30.864,3.644 c 0.254,-0.23 0.491,-0.487 0.768,-0.691 1.024,-0.754 2.046,-1.513 3.099,-2.227 0.959,-0.649 1.947,-1.26 2.946,-1.847 0.261,-0.153 0.609,-0.202 0.92,-0.213 0.496,-0.019 0.993,0.03 1.489,0.059 0.081,0.005 0.213,0.032 0.231,0.082 0.22,0.604 0.831,1.008 0.822,1.745 -0.006,0.514 -0.042,0.984 -0.241,1.473 -0.138,0.338 -0.056,0.762 -0.091,1.145 -0.047,0.508 -0.123,1.012 -0.167,1.52 -0.042,0.482 0.007,0.983 -0.101,1.448 -0.166,0.719 -0.438,1.413 -0.647,2.122 -0.027,0.093 0.078,0.218 0.072,0.326 -0.018,0.298 -0.069,0.594 -0.09,0.894 -0.015,0.216 -0.003,0.435 -0.003,0.714 -0.425,0.123 -0.271,0.573 -0.332,0.931 -0.065,0.38 -0.118,0.762 -0.174,1.143 -0.127,0.859 -0.2,1.732 -0.391,2.577 -0.319,1.409 -0.175,2.813 0.031,4.2 0.146,0.983 0.697,1.801 1.674,2.192 0.25,0.101 0.577,0.013 0.87,0.011 0.21,-0.002 0.421,0 0.63,-0.016 0.079,-0.006 0.164,-0.044 0.23,-0.089 1.128,-0.765 1.998,-1.753 2.581,-2.99 0.08,-0.169 0.163,-0.342 0.274,-0.49 0.791,-1.054 1.175,-2.3 1.702,-3.481 0.409,-0.917 0.977,-1.762 1.447,-2.653 0.16,-0.303 0.315,-0.641 0.345,-0.974 0.083,-0.939 0.6,-1.698 1.005,-2.487 0.659,-1.279 0.805,-2.697 1.254,-4.029 -0.243,-0.779 0.343,-1.359 0.488,-2.043 0.147,-0.693 0.308,-1.383 0.454,-2.076 0.053,-0.25 0.199,-0.305 0.44,-0.35 0.571,-0.106 1.128,-0.284 1.695,-0.417 0.446,-0.105 0.898,-0.188 1.451,-0.302 -0.053,0.695 -0.099,1.324 -0.149,1.953 -0.01,0.124 -0.042,0.246 -0.044,0.369 -0.008,0.595 -0.002,1.19 -0.015,1.785 -0.023,1.06 -0.282,2.126 0.119,3.173 0.051,0.132 0.031,0.296 0.023,0.444 -0.039,0.817 -0.109,1.635 -0.119,2.453 -0.008,0.686 0.052,1.371 0.083,2.057 0.001,0.037 0.014,0.075 0.012,0.112 -0.026,0.413 -0.212,0.786 0.015,1.246 0.204,0.414 0.173,0.946 0.234,1.427 0.074,0.582 0.073,1.181 0.217,1.743 0.185,0.722 0.077,1.509 0.573,2.166 0.852,1.132 1.141,2.562 1.915,3.737 0.163,0.247 0.4,0.467 0.647,0.635 0.623,0.42 1.298,0.594 2.051,0.34 0.26,-0.089 0.568,-0.191 0.775,0.19 -0.26,0.349 -0.491,0.728 -0.996,0.85 -0.616,0.148 -1.207,0.421 -1.827,0.517 -0.42,0.063 -0.891,-0.027 -1.305,-0.156 C 57.229,23.73 56.76,23.486 56.358,23.027 55.999,22.62 55.388,22.439 54.9,22.137 54.76,22.051 54.617,21.915 54.556,21.769 54.171,20.841 53.573,20.067 52.901,19.336 52.767,19.19 52.708,18.978 52.617,18.794 52.601,18.762 52.605,18.72 52.59,18.687 c -0.426,-0.945 -0.647,-1.961 -1.003,-2.932 -0.123,-0.334 0.018,-0.767 0.04,-1.154 0.005,-0.081 0.037,-0.163 0.025,-0.241 -0.17,-1.229 -0.346,-2.458 -0.52,-3.688 -0.006,-0.047 -0.012,-0.094 -0.012,-0.094 -0.518,0.785 -1.055,1.589 -1.58,2.402 -0.063,0.098 -0.059,0.238 -0.091,0.356 -0.023,0.08 -0.041,0.216 -0.088,0.228 -0.378,0.1 -0.305,0.391 -0.31,0.659 -0.002,0.107 -0.022,0.227 -0.074,0.32 -0.267,0.491 -0.558,0.97 -0.82,1.463 -0.199,0.373 -0.401,0.75 -0.543,1.146 -0.367,1.03 -1.003,1.903 -1.654,2.749 -0.668,0.867 -1.458,1.641 -2.195,2.455 -0.017,0.019 -0.033,0.04 -0.054,0.052 -1.061,0.562 -1.962,1.479 -3.281,1.474 -0.134,-0.001 -0.276,0.03 -0.401,0.079 -0.263,0.103 -0.471,0.05 -0.678,-0.14 -0.076,-0.069 -0.227,-0.058 -0.344,-0.079 -0.084,-0.014 -0.176,-0.003 -0.254,-0.032 -0.443,-0.166 -0.897,-0.312 -1.32,-0.521 -0.422,-0.207 -0.757,-0.522 -0.854,-1.022 -0.021,-0.108 -0.042,-0.256 -0.117,-0.308 -0.587,-0.403 -0.49,-1.059 -0.616,-1.628 -0.062,-0.278 -0.046,-0.579 -0.132,-0.848 -0.196,-0.611 -0.138,-1.201 0.055,-1.794 0.012,-0.035 0.011,-0.085 0.035,-0.105 0.373,-0.306 0.194,-0.66 0.107,-1.016 -0.022,-0.094 0.029,-0.237 0.097,-0.314 0.108,-0.129 0.26,-0.221 0.438,-0.365 z" /><path
         style="clip-rule:evenodd;fill:#333333;fill-opacity:1;fill-rule:evenodd"
         id="path3943"
         d="m 66.257,15.726 c -1.978,0 -3.55,-1.548 -3.545,-3.49 0.005,-1.965 1.583,-3.513 3.577,-3.508 1.954,0.004 3.548,1.576 3.553,3.504 0.005,1.95 -1.58,3.495 -3.585,3.494 z" /></g><g
       style="fill:#333333;fill-opacity:1"
       id="g4005"><path
         style="fill:#333333;fill-opacity:1"
         id="path3947"
         d="M 81.467,7.226 V 3.013 h 0.818 v 4.161 c 0,1.563 0.828,2.444 2.216,2.444 1.335,0 2.184,-0.808 2.184,-2.391 V 3.013 h 0.818 v 4.15 c 0,2.112 -1.212,3.208 -3.023,3.208 -1.791,10e-4 -3.013,-1.096 -3.013,-3.145 z" /><path
         style="fill:#333333;fill-opacity:1"
         id="path3949"
         d="m 89.298,4.908 h 0.797 v 0.931 c 0.352,-0.58 0.911,-1.045 1.833,-1.045 1.293,0 2.05,0.869 2.05,2.143 v 3.322 H 93.181 V 7.133 c 0,-0.994 -0.539,-1.616 -1.48,-1.616 -0.921,0 -1.604,0.674 -1.604,1.678 v 3.064 H 89.3 V 4.908 Z" /><path
         style="fill:#333333;fill-opacity:1"
         id="path3951"
         d="M 95.689,2.857 H 96.6 v 0.881 h -0.911 z m 0.052,2.051 h 0.797 v 5.351 h -0.797 z" /><path
         style="fill:#333333;fill-opacity:1"
         id="path3953"
         d="m 97.861,4.908 h 0.881 l 1.801,4.439 1.812,-4.439 h 0.859 l -2.329,5.392 h -0.704 z" /><path
         style="fill:#333333;fill-opacity:1"
         id="path3955"
         d="m 106.822,9.688 c 0.735,0 1.252,-0.299 1.687,-0.755 l 0.497,0.445 c -0.539,0.6 -1.189,1.004 -2.204,1.004 -1.471,0 -2.672,-1.127 -2.672,-2.795 0,-1.553 1.088,-2.795 2.568,-2.795 1.583,0 2.495,1.264 2.495,2.838 0,0.071 0,0.154 -0.011,0.279 h -4.243 c 0.113,1.129 0.941,1.779 1.883,1.779 z m 1.563,-2.421 c -0.093,-0.974 -0.652,-1.802 -1.708,-1.802 -0.921,0 -1.625,0.766 -1.741,1.802 z" /><path
         style="fill:#333333;fill-opacity:1"
         id="path3957"
         d="m 110.585,4.908 h 0.797 v 1.396 c 0.394,-0.89 1.171,-1.532 2.185,-1.49 v 0.858 h -0.062 c -1.17,0 -2.122,0.838 -2.122,2.454 v 2.131 h -0.797 V 4.908 Z" /><path
         style="fill:#333333;fill-opacity:1"
         id="path3959"
         d="m 114.33,9.574 0.403,-0.568 c 0.579,0.435 1.222,0.682 1.853,0.682 0.642,0 1.107,-0.331 1.107,-0.848 V 8.819 c 0,-0.539 -0.631,-0.746 -1.335,-0.941 -0.839,-0.238 -1.771,-0.529 -1.771,-1.512 V 6.345 c 0,-0.921 0.767,-1.53 1.822,-1.53 0.652,0 1.377,0.227 1.925,0.59 l -0.362,0.6 c -0.496,-0.321 -1.066,-0.517 -1.584,-0.517 -0.633,0 -1.034,0.331 -1.034,0.775 v 0.021 c 0,0.508 0.662,0.705 1.376,0.921 0.828,0.248 1.719,0.57 1.719,1.532 v 0.021 c 0,1.014 -0.839,1.605 -1.904,1.605 -0.766,0 -1.616,-0.301 -2.215,-0.789 z" /><path
         style="fill:#333333;fill-opacity:1"
         id="path3961"
         d="m 119.945,2.857 h 0.911 v 0.881 h -0.911 z m 0.052,2.051 h 0.797 v 5.351 h -0.797 z" /><path
         style="fill:#333333;fill-opacity:1"
         id="path3963"
         d="M 122.334,7.599 V 7.578 c 0,-1.749 1.273,-2.785 2.557,-2.785 0.994,0 1.637,0.539 2.051,1.138 V 2.702 h 0.797 v 7.556 h -0.797 V 9.182 c -0.436,0.641 -1.067,1.191 -2.051,1.191 -1.282,-10e-4 -2.557,-1.016 -2.557,-2.774 z m 4.639,-0.012 V 7.566 c 0,-1.232 -0.942,-2.06 -1.936,-2.06 -1.037,0 -1.885,0.767 -1.885,2.06 v 0.021 c 0,1.263 0.87,2.07 1.885,2.07 0.994,10e-4 1.936,-0.838 1.936,-2.07 z" /><path
         style="fill:#333333;fill-opacity:1"
         id="path3965"
         d="M 129.11,8.706 V 8.685 c 0,-1.149 0.931,-1.749 2.287,-1.749 0.683,0 1.159,0.093 1.636,0.227 V 6.998 c 0,-0.952 -0.581,-1.449 -1.584,-1.449 -0.633,0 -1.127,0.155 -1.625,0.382 l -0.238,-0.65 c 0.59,-0.27 1.16,-0.456 1.946,-0.456 0.755,0 1.345,0.207 1.728,0.59 0.375,0.373 0.561,0.89 0.561,1.573 v 3.271 h -0.787 V 9.461 c -0.374,0.477 -0.984,0.91 -1.926,0.91 -1.003,10e-4 -1.998,-0.568 -1.998,-1.665 z m 3.933,-0.414 V 7.795 c -0.393,-0.114 -0.91,-0.228 -1.563,-0.228 -0.993,0 -1.563,0.435 -1.563,1.077 v 0.02 c 0,0.674 0.621,1.066 1.346,1.066 0.983,-0.001 1.78,-0.589 1.78,-1.438 z" /><path
         style="fill:#333333;fill-opacity:1"
         id="path3967"
         d="M 135.193,7.599 V 7.578 c 0,-1.749 1.272,-2.785 2.556,-2.785 0.993,0 1.636,0.539 2.05,1.138 V 2.702 h 0.797 v 7.556 h -0.797 V 9.182 c -0.436,0.641 -1.066,1.191 -2.05,1.191 -1.283,-10e-4 -2.556,-1.016 -2.556,-2.774 z M 139.83,7.587 V 7.566 c 0,-1.232 -0.942,-2.06 -1.936,-2.06 -1.035,0 -1.885,0.767 -1.885,2.06 v 0.021 c 0,1.263 0.87,2.07 1.885,2.07 0.994,10e-4 1.936,-0.838 1.936,-2.07 z" /><path
         style="fill:#333333;fill-opacity:1"
         id="path3969"
         d="m 145.607,3.013 h 0.768 l 4.564,5.807 V 3.013 h 0.797 v 7.245 h -0.652 l -4.678,-5.94 v 5.94 h -0.797 V 3.013 Z" /><path
         style="fill:#333333;fill-opacity:1"
         id="path3971"
         d="M 153.242,8.706 V 8.685 c 0,-1.149 0.932,-1.749 2.287,-1.749 0.686,0 1.16,0.093 1.637,0.227 V 6.998 c 0,-0.952 -0.58,-1.449 -1.584,-1.449 -0.633,0 -1.129,0.155 -1.625,0.382 l -0.239,-0.65 c 0.591,-0.27 1.16,-0.456 1.946,-0.456 0.756,0 1.346,0.207 1.729,0.59 0.374,0.373 0.56,0.89 0.56,1.573 v 3.271 h -0.786 V 9.461 c -0.373,0.477 -0.984,0.91 -1.926,0.91 -1.006,10e-4 -1.999,-0.568 -1.999,-1.665 z m 3.934,-0.414 V 7.795 c -0.393,-0.114 -0.91,-0.228 -1.564,-0.228 -0.994,0 -1.563,0.435 -1.563,1.077 v 0.02 c 0,0.674 0.623,1.066 1.347,1.066 0.983,-0.001 1.78,-0.589 1.78,-1.438 z" /><path
         style="fill:#333333;fill-opacity:1"
         id="path3973"
         d="M 159.304,7.608 V 7.587 c 0,-1.511 1.18,-2.795 2.743,-2.795 1.014,0 1.645,0.425 2.143,0.952 l -0.528,0.56 c -0.425,-0.445 -0.901,-0.808 -1.625,-0.808 -1.087,0 -1.916,0.921 -1.916,2.071 v 0.021 c 0,1.16 0.851,2.081 1.967,2.081 0.683,0 1.211,-0.342 1.636,-0.797 l 0.506,0.476 c -0.537,0.601 -1.178,1.036 -2.184,1.036 -1.563,-0.001 -2.742,-1.275 -2.742,-2.776 z" /><path
         style="fill:#333333;fill-opacity:1"
         id="path3975"
         d="m 165.561,2.857 h 0.912 v 0.881 h -0.912 z m 0.052,2.051 h 0.797 v 5.351 h -0.797 z" /><path
         style="fill:#333333;fill-opacity:1"
         id="path3977"
         d="M 167.93,7.608 V 7.587 c 0,-1.511 1.181,-2.795 2.796,-2.795 1.604,0 2.784,1.264 2.784,2.775 v 0.021 c 0,1.511 -1.19,2.795 -2.805,2.795 -1.606,0 -2.775,-1.263 -2.775,-2.775 z m 4.762,0 V 7.587 c 0,-1.148 -0.861,-2.091 -1.988,-2.091 -1.16,0 -1.957,0.942 -1.957,2.071 v 0.021 c 0,1.149 0.85,2.081 1.977,2.081 1.159,-0.001 1.968,-0.932 1.968,-2.061 z" /><path
         style="fill:#333333;fill-opacity:1"
         id="path3979"
         d="m 174.943,4.908 h 0.797 v 0.931 c 0.352,-0.58 0.91,-1.045 1.833,-1.045 1.294,0 2.05,0.869 2.05,2.143 v 3.322 h -0.797 V 7.133 c 0,-0.994 -0.539,-1.616 -1.48,-1.616 -0.922,0 -1.604,0.674 -1.604,1.678 v 3.064 h -0.797 z" /><path
         style="fill:#333333;fill-opacity:1"
         id="path3981"
         d="M 180.911,8.706 V 8.685 c 0,-1.149 0.933,-1.749 2.288,-1.749 0.684,0 1.159,0.093 1.635,0.227 V 6.998 c 0,-0.952 -0.579,-1.449 -1.583,-1.449 -0.632,0 -1.128,0.155 -1.626,0.382 l -0.236,-0.65 c 0.588,-0.27 1.158,-0.456 1.945,-0.456 0.756,0 1.346,0.207 1.729,0.59 0.373,0.373 0.559,0.89 0.559,1.573 v 3.271 h -0.787 V 9.461 c -0.372,0.477 -0.984,0.91 -1.924,0.91 -1.008,10e-4 -2,-0.568 -2,-1.665 z m 3.934,-0.414 V 7.795 c -0.394,-0.114 -0.911,-0.228 -1.562,-0.228 -0.995,0 -1.563,0.435 -1.563,1.077 v 0.02 c 0,0.674 0.621,1.066 1.345,1.066 0.983,-0.001 1.78,-0.589 1.78,-1.438 z" /><path
         style="fill:#333333;fill-opacity:1"
         id="path3983"
         d="m 187.377,2.702 h 0.797 v 7.556 h -0.797 z" /><path
         style="fill:#333333;fill-opacity:1"
         id="path3985"
         d="m 81.136,20.254 v -0.021 c 0,-1.748 1.273,-2.784 2.557,-2.784 0.994,0 1.635,0.538 2.05,1.139 v -3.229 h 0.797 v 7.557 H 85.743 V 21.84 c -0.435,0.641 -1.066,1.19 -2.05,1.19 -1.282,-0.002 -2.557,-1.016 -2.557,-2.776 z m 4.636,-0.011 v -0.02 c 0,-1.233 -0.942,-2.061 -1.936,-2.061 -1.036,0 -1.882,0.766 -1.882,2.061 v 0.02 c 0,1.264 0.869,2.069 1.882,2.069 0.996,0 1.936,-0.837 1.936,-2.069 z" /><path
         style="fill:#333333;fill-opacity:1"
         id="path3987"
         d="m 90.674,22.345 c 0.733,0 1.253,-0.299 1.688,-0.756 l 0.497,0.445 c -0.538,0.601 -1.19,1.004 -2.205,1.004 -1.471,0 -2.671,-1.127 -2.671,-2.795 0,-1.553 1.086,-2.795 2.567,-2.795 1.583,0 2.495,1.263 2.495,2.836 0,0.071 0,0.155 -0.01,0.279 H 88.79 c 0.114,1.131 0.943,1.782 1.884,1.782 z m 1.564,-2.421 c -0.093,-0.973 -0.652,-1.803 -1.707,-1.803 -0.921,0 -1.625,0.767 -1.741,1.803 z" /><path
         style="fill:#333333;fill-opacity:1"
         id="path3989"
         d="m 97.52,15.668 h 3.314 c 0.921,0 1.635,0.259 2.111,0.735 0.404,0.403 0.621,0.973 0.621,1.656 v 0.02 c 0,1.17 -0.632,1.904 -1.553,2.246 l 1.77,2.588 h -1.864 l -1.553,-2.318 h -1.252 v 2.318 H 97.52 Z m 3.21,3.52 c 0.776,0 1.221,-0.416 1.221,-1.025 v -0.021 c 0,-0.685 -0.476,-1.036 -1.254,-1.036 h -1.583 v 2.082 z" /><path
         style="fill:#333333;fill-opacity:1"
         id="path3991"
         d="m 104.906,17.365 h 1.572 v 5.549 h -1.572 z m 1.314,-2.442 1.355,0.59 -1.345,1.242 h -1.159 z" /><path
         style="fill:#333333;fill-opacity:1"
         id="path3993"
         d="M 107.688,20.171 V 20.15 c 0,-1.592 1.284,-2.888 3.012,-2.888 1.719,0 2.991,1.274 2.991,2.868 v 0.02 c 0,1.596 -1.285,2.89 -3.014,2.89 -1.717,-10e-4 -2.989,-1.275 -2.989,-2.869 z m 4.45,0 V 20.15 c 0,-0.816 -0.589,-1.53 -1.46,-1.53 -0.9,0 -1.437,0.694 -1.437,1.511 v 0.02 c 0,0.818 0.591,1.533 1.459,1.533 0.902,-0.001 1.438,-0.697 1.438,-1.513 z" /><path
         style="fill:#333333;fill-opacity:1"
         id="path3995"
         d="m 118.095,15.668 h 1.471 l 3.394,4.461 v -4.461 h 1.574 v 7.246 h -1.356 l -3.509,-4.605 v 4.605 h -1.573 v -7.246 z" /><path
         style="fill:#333333;fill-opacity:1"
         id="path3997"
         d="M 125.83,20.171 V 20.15 c 0,-1.584 1.127,-2.888 2.744,-2.888 1.853,0 2.701,1.44 2.701,3.013 0,0.123 -0.01,0.269 -0.021,0.414 h -3.861 c 0.156,0.713 0.652,1.088 1.356,1.088 0.528,0 0.911,-0.166 1.346,-0.568 l 0.9,0.794 c -0.517,0.642 -1.262,1.036 -2.267,1.036 -1.666,0 -2.898,-1.169 -2.898,-2.868 z m 3.914,-0.465 c -0.094,-0.705 -0.508,-1.18 -1.17,-1.18 -0.652,0 -1.078,0.464 -1.201,1.18 z" /><path
         style="fill:#333333;fill-opacity:1"
         id="path3999"
         d="m 132.472,24.013 0.538,-1.182 c 0.569,0.322 1.14,0.508 1.875,0.508 1.077,0 1.583,-0.518 1.583,-1.511 V 21.56 c -0.465,0.559 -0.973,0.9 -1.812,0.9 -1.293,0 -2.463,-0.942 -2.463,-2.588 v -0.021 c 0,-1.657 1.19,-2.589 2.463,-2.589 0.86,0 1.367,0.363 1.79,0.828 v -0.723 h 1.574 v 4.296 c 0,0.994 -0.238,1.717 -0.704,2.184 -0.518,0.517 -1.314,0.745 -2.393,0.745 -0.898,0 -1.747,-0.207 -2.451,-0.579 z m 3.996,-4.142 V 19.85 c 0,-0.757 -0.591,-1.285 -1.356,-1.285 -0.768,0 -1.347,0.528 -1.347,1.285 v 0.021 c 0,0.765 0.579,1.282 1.347,1.282 0.766,0 1.356,-0.525 1.356,-1.282 z" /><path
         style="fill:#333333;fill-opacity:1"
         id="path4001"
         d="m 139.424,17.365 h 1.572 v 1.119 c 0.322,-0.765 0.838,-1.263 1.771,-1.223 v 1.646 h -0.083 c -1.045,0 -1.688,0.634 -1.688,1.959 v 2.049 h -1.572 z" /><path
         style="fill:#333333;fill-opacity:1"
         id="path4003"
         d="M 143.477,20.171 V 20.15 c 0,-1.592 1.285,-2.888 3.014,-2.888 1.719,0 2.99,1.274 2.99,2.868 v 0.02 c 0,1.596 -1.283,2.89 -3.012,2.89 -1.718,-10e-4 -2.992,-1.275 -2.992,-2.869 z m 4.451,0 V 20.15 c 0,-0.816 -0.59,-1.53 -1.459,-1.53 -0.901,0 -1.438,0.694 -1.438,1.511 v 0.02 c 0,0.818 0.59,1.533 1.459,1.533 0.901,-0.001 1.438,-0.697 1.438,-1.513 z" /></g></g></svg>